<?xml version="1.0" standalone="no"?>
<!DOCTYPE svg PUBLIC "-//W3C//DTD SVG 20010904//EN"
 "http://www.w3.org/TR/2001/REC-SVG-20010904/DTD/svg10.dtd">
<svg version="1.0" xmlns="http://www.w3.org/2000/svg"
 width="512.000000pt" height="512.000000pt" viewBox="0 0 512.000000 512.000000"
 preserveAspectRatio="xMidYMid meet">

<g transform="translate(0.000000,512.000000) scale(0.100000,-0.100000)"
fill="#ffffff" stroke="none">
<path d="M0 2560 l0 -2560 2560 0 2560 0 0 2560 0 2560 -2560 0 -2560 0 0
-2560z m4429 2314 c220 -54 396 -244 436 -469 22 -122 22 -3597 0 -3700 -45
-214 -228 -404 -441 -460 -51 -13 -277 -15 -1869 -15 -1599 0 -1818 2 -1870
15 -183 48 -356 210 -418 394 -11 31 -23 108 -28 171 -6 66 -8 855 -7 1845 4
1922 -2 1767 70 1914 43 89 159 205 254 254 137 71 -12 66 1993 66 1638 1
1821 -1 1880 -15z"/>
<path d="M2395 4389 c-471 -44 -923 -270 -1227 -614 -462 -523 -585 -1293
-308 -1941 210 -491 639 -875 1150 -1028 204 -61 276 -70 540 -71 218 0 258 3
360 23 360 73 655 226 919 477 279 266 460 590 541 970 28 128 38 438 20 581
-53 422 -254 819 -562 1110 -310 291 -690 459 -1122 494 -143 11 -180 11 -311
-1z m-304 -1266 l77 -74 401 3 401 3 72 71 c40 39 82 76 93 82 26 14 73 -10
86 -44 11 -32 -2 -52 -100 -149 l-71 -69 0 -389 0 -388 71 -72 c100 -102 104
-108 84 -147 -13 -26 -48 -50 -72 -50 -3 0 -45 38 -93 85 l-87 86 -396 -3
-397 -3 -72 -71 c-86 -85 -110 -99 -138 -84 -29 16 -53 56 -46 78 4 11 42 56
86 100 l80 80 0 389 0 389 -66 64 c-89 89 -108 120 -92 155 16 36 56 56 83 43
11 -6 54 -44 96 -85z"/>
<path d="M2320 2892 c0 -11 249 -242 268 -250 13 -5 262 233 262 250 0 5 -119
8 -265 8 -146 0 -265 -4 -265 -8z"/>
<path d="M2211 2678 l1 -83 82 -80 c44 -45 130 -127 191 -184 l110 -104 157
162 158 162 0 92 0 92 -159 -159 -160 -160 -48 44 c-26 24 -108 101 -181 170
-73 69 -137 127 -143 128 -6 3 -9 -26 -8 -80z"/>
</g>
</svg>
